<svg id="Layer_1" data-name="Layer 1" xmlns="http://www.w3.org/2000/svg" viewBox="0 0 598.21 228.93"><defs><style>.cls-1{fill:#ffffff;}</style></defs><title>mvu</title><path class="cls-1" d="M0,124.7c0-18,10.25-30.6,27.72-30.6,15.75,0,22.31,9.76,23.7,17.72l-10.49,1.8c-.91-5.16-4.43-11.15-13.37-11.15-10.66,0-16.73,8.86-16.73,22.14,0,12.8,5.57,22,16.81,22,11.81,0,14.84-9.67,14.84-15v-1.06H26.74V122.4H52.08v31.33H44.54l-.91-8.94c-2.7,6.23-9.26,10.33-18,10.33C9.6,155.12,0,142.66,0,124.7Z"/><path class="cls-1" d="M83.09,130.35H72.84v23.38H62.26V95.5H85.72c15,0,20.17,7.87,20.17,17.47,0,6.89-3.6,13.53-12.22,16l13.86,24.77H95.89Zm-10.25-7.87H83.91c8,0,10.91-4,10.91-9.51s-2.95-9.43-10.91-9.43H72.84Z"/><path class="cls-1" d="M124.24,95.5v37.31c0,8.21,4.6,13.37,12.8,13.37s12.88-5.16,12.88-13.37V95.5H160.5v37.89c0,13.12-8.53,21.73-23.46,21.73s-23.38-8.61-23.38-21.73V95.5Z"/><path class="cls-1" d="M214.74,113.21c0,11-7.87,18-20.42,18H181.94v22.56H171.36V95.5h23C206.79,95.5,214.74,102.47,214.74,113.21Zm-11.15.17c0-6-4.27-9.76-11.15-9.76h-10.5v19.52h10.5C199.32,123.14,203.59,119.45,203.59,113.38Z"/><path class="cls-1" d="M249.54,138.39h-22.8l-5.25,15.34H210.74L232.4,95.5h11.48l21.65,58.23H254.79Zm-2.79-8-6.81-19.68a53.38,53.38,0,0,1-1.72-6.23h-.16a53.32,53.32,0,0,1-1.73,6.23l-6.8,19.68Z"/><path class="cls-1" d="M24.93,204.16H14.68v23.38H4.1V169.31H27.56c15,0,20.17,7.87,20.17,17.47,0,6.88-3.61,13.53-12.22,16l13.86,24.77H37.73Zm-10.25-7.87H25.75c8,0,10.91-4,10.91-9.51s-2.95-9.44-10.91-9.44H14.68Z"/><path class="cls-1" d="M52.84,198.42c0-18.94,10.82-30.51,27.56-30.51S108,179.48,108,198.42c0,18.78-10.82,30.51-27.55,30.51S52.84,217,52.84,198.42Zm44.12,0c0-13.7-6.07-22-16.56-22s-16.57,8.28-16.57,22c0,13.45,6.15,22,16.57,22S97,212.12,97,198.42Z"/><path class="cls-1" d="M160.16,211.38c0,8.2-5.41,16.16-19.52,16.16H116.2V169.31h23c14.36,0,19.36,7.62,19.36,15.25,0,5.82-3.36,10.91-10.09,12.71C155.73,198.5,160.16,203.59,160.16,211.38Zm-33.38-34v16.57h10.74c8.2,0,10.25-4.18,10.25-8.2,0-4.35-2.46-8.37-10.25-8.37Zm22.55,33.06c0-5-3.11-8.7-10.09-8.7H126.78v17.8h11.89C146.46,219.5,149.33,215.32,149.33,210.4Z"/><path class="cls-1" d="M164.93,198.42c0-18.94,10.83-30.51,27.56-30.51s27.56,11.57,27.56,30.51c0,18.78-10.83,30.51-27.56,30.51S164.93,217,164.93,198.42Zm44.13,0c0-13.7-6.07-22-16.57-22s-16.57,8.28-16.57,22c0,13.45,6.16,22,16.57,22S209.06,212.12,209.06,198.42Z"/><path class="cls-1" d="M224.86,198.34c0-18.13,9.92-30.43,27.39-30.43,14.52,0,22.8,8.29,24.36,20.67l-10.83,1.56c-1-8.29-5.82-13.53-13.86-13.53-10.25,0-16.15,8.61-16.15,21.65,0,12.71,5.74,21.81,16.4,21.81,7.46,0,12.55-5,14-13.2l10.5,2.13c-2.46,11.65-10.41,19.93-24.6,19.93C233.8,228.93,224.86,216,224.86,198.34Z"/><path class="cls-1" d="M310.1,177.83H280.74v-8.52h41.17v8.52L291.4,219.09h31.74v8.45H279.59V219Z"/><path class="cls-1" d="M365.3,212.2H342.5l-5.25,15.34H326.51l21.65-58.23h11.48l21.65,58.23H370.55Zm-2.79-8-6.81-19.68a53.38,53.38,0,0,1-1.72-6.23h-.16a53.38,53.38,0,0,1-1.72,6.23l-6.81,19.68Z"/><path class="cls-1" d="M2.17,17.23H20.62v5.9c4.52-5.06,11.42-7.35,19.07-7.35,14.25,0,23.52,8.19,23.52,20.06C63.21,48.71,53.33,57,39.16,57c-8.27,0-14-2.68-18.15-6.89V70.46H2.17ZM43.6,35.76c0-5.36-4.14-8.8-11.18-8.8s-11.8,3.44-11.8,8.73v.23c0,5.89,4.75,9.72,11.8,9.72S43.6,41.89,43.6,35.76Z"/><path class="cls-1" d="M64.84,36.38c0-12.64,12.18-20.6,30.94-20.6s30.87,8,30.87,20.6S114.47,57,95.78,57,64.84,49,64.84,36.38Zm42.28,0c0-5.67-4.6-9.35-11.34-9.35s-11.41,3.68-11.41,9.35,4.6,9.34,11.41,9.34S107.12,42,107.12,36.38Z"/><path class="cls-1" d="M125.11,17.23H143.8l5.89,19.91A46.47,46.47,0,0,1,150.77,42h.15a19.92,19.92,0,0,1,1.22-4.83l7-19.91H177.8l7,19.91A24.55,24.55,0,0,1,186.07,42h.15a34.12,34.12,0,0,1,1-4.83l5.9-19.91H211.8L196.72,55.52H176.65l-6.58-18.15a28.09,28.09,0,0,1-1.46-5.51h-.31a23.87,23.87,0,0,1-1.45,5.51l-6.59,18.15h-20Z"/><path class="cls-1" d="M269,40.13H228.39c1.38,3.68,5.9,5.74,12.48,5.74,4.83,0,9.81-1.83,12.18-4.44l14.09,6c-5.44,6-14.78,9.5-27.11,9.5-18.69,0-29.64-7.58-29.64-20.6,0-12.64,11.41-20.6,29.33-20.6,18.84,0,29.26,8.5,29.26,22.67Zm-18.53-8.81c-.23-3.21-4.22-6.12-10.8-6.12s-10.42,2.37-11.41,6.12Z"/><path class="cls-1" d="M307.84,16.08a27.51,27.51,0,0,1,5.06.39V32.09a32.44,32.44,0,0,0-6.74-.69c-4.06,0-7.51.92-9.73,2.76-2.6,2.22-3.83,6-3.83,10V55.52H273.76V17.23h16.39V28.72C292.3,21.21,298.58,16.08,307.84,16.08Z"/><path class="cls-1" d="M372.7,40.13H332.11c1.38,3.68,5.89,5.74,12.48,5.74,4.83,0,9.8-1.83,12.18-4.44l14.09,6c-5.44,6-14.78,9.5-27.11,9.5-18.69,0-29.64-7.58-29.64-20.6,0-12.64,11.41-20.6,29.33-20.6,18.84,0,29.26,8.5,29.26,22.67Zm-18.54-8.81c-.23-3.21-4.21-6.12-10.79-6.12S333,27.57,332,31.32Z"/><path class="cls-1" d="M374.33,36.07c0-12.1,9.64-20.29,24-20.29,8.19,0,13.86,2.14,18.22,6.12V0h18.84V55.52h-18.3V48.25C413.15,53.69,406.41,57,397.68,57,383.82,57,374.33,48.71,374.33,36.07Zm42.58.38v-.61C416.91,30.48,412,27,405,27s-11.19,3.52-11.19,9.11c0,5.82,4.37,9.57,11.26,9.57S416.91,42,416.91,36.45Z"/><path class="cls-1" d="M495.34,49.4,494,55.52H477V0h18.84V22.59c4.52-4.52,10.95-6.81,19-6.81,13.7,0,23.2,8.19,23.2,20.06,0,12.79-9.65,21.14-24.43,21.14C506.13,57,499.24,54.14,495.34,49.4Zm23.12-13.48c0-5.36-4.51-9-11.25-9-7.2,0-12.1,3.6-12.1,8.73v.46c0,5.89,4.67,9.57,12.1,9.57C514,45.72,518.46,41.81,518.46,35.92Z"/><path class="cls-1" d="M539.39,70.84V57.29a50.2,50.2,0,0,0,9,1c2.3,0,7.27-.69,9.27-2.3l.07-.15-22.9-38.6h20.76l8.88,19.07a41.49,41.49,0,0,1,2.38,5.36h.38c.76-2,1.22-2.68,2.22-5l8.65-19.38h20.07l-21.45,39.9c-5.51,10.26-12.63,14.78-25.8,14.78A57.58,57.58,0,0,1,539.39,70.84Z"/></svg>