<svg xmlns="http://www.w3.org/2000/svg" viewBox="0 0 1627 507" xmlns:xlink="http://www.w3.org/1999/xlink">
	<defs>
		<style type="text/css">
			.fil0 {fill:white;}
		</style>
	</defs>
	<path class="fil0" d="M360 0l76 0 26 73c2,7 5,12 5,18l0 0c1,-5 3,-11 5,-18l24 -72 78 0 0 143 -47 0 0 -78c0,-9 1,-20 3,-30l-1 0c-1,5 -6,19 -10,28l-31 80 -48 0 -29 -80c-4,-11 -7,-22 -9,-29l-1 0c2,10 2,21 2,30l0 78 -45 0 0 -143z" />
	<polygon class="fil0" points="606,0 657,0 657,143 606,143 " />
	<path class="fil0" d="M689 0l53 0 58 66c4,5 9,12 12,18l1 0 0 -22 0 -62 46 0 0 143 -50 0 -61 -66c-4,-4 -10,-13 -12,-18l-1 0 0 22 0 63 -47 0 0 -143z" />
	<polygon class="fil0" points="891,0 942,0 942,143 891,143 " />
	<path class="fil0" d="M974 0l76 0 26 73c2,7 5,12 5,18l0 0c1,-5 3,-11 5,-18l25 -72 78 0 0 143 -47 0 0 -78c0,-9 1,-20 3,-30l-1 0c-1,5 -6,19 -10,28l-31 80 -48 0 -29 -80c-4,-11 -7,-22 -9,-29l-1 0c2,10 2,21 2,30l0 78 -45 0 0 -143z" />
	<path class="fil0" d="M1266 0l0 74c0,21 11,34 35,34 22,0 34,-14 34,-34l0 -74 51 0 0 80c0,41 -30,68 -86,68 -55,0 -86,-27 -86,-68l0 -79 51 0z" />
	<path class="fil0" d="M1412 0l76 0 26 73c2,7 5,12 5,18l0 0c1,-5 3,-11 5,-18l25 -72 78 0 0 143 -47 0 0 -78c0,-9 1,-20 3,-30l-1 0c-1,5 -6,19 -10,28l-31 80 -48 0 -29 -80c-4,-11 -7,-22 -9,-29l-1 0c2,10 2,21 2,30l0 78 -45 0 0 -143z" />
	<path class="fil0" d="M343 180l57 0 37 88c2,6 4,10 5,15l1 0c1,-5 2,-10 5,-15l37 -88 57 0 -68 142 -62 0 -68 -142z" />
	<polygon class="fil0" points="556,180 608,180 608,322 556,322 " />
	<path class="fil0" d="M757 295l-67 0 -11 27 -55 0 66 -142 67 0 66 142 -55 0 -11 -27zm-13 -31l-10 -25c-2,-6 -8,-22 -11,-31l-1 0c-3,9 -8,25 -11,31l-10 25 42 0z" />
	<path class="fil0" d="M1012 281c0,20 -14,41 -55,41l-116 0 0 -142 115 0c36,0 53,14 53,36 0,15 -9,27 -30,31 22,3 33,15 33,34zm-120 -69l0 24 48 0c12,0 15,-7 15,-13 0,-6 -3,-11 -15,-11l-48 0zm66 65c0,-7 -6,-13 -16,-13l-50 0 0 27 50 0c12,0 16,-7 16,-14z" />
	<polygon class="fil0" points="1033,180 1084,180 1084,283 1174,283 1174,322 1033,322 " />
	<polygon class="fil0" points="1345,288 1345,322 1195,322 1195,180 1344,180 1344,214 1246,214 1246,235 1341,235 1341,266 1246,266 1246,288 " />
	<path class="fil0" d="M422 360l-13 71c-5,30 15,37 31,37 24,0 35,-16 38,-34l13 -73 51 0 -13 75c-8,43 -32,72 -90,72 -49,0 -91,-20 -81,-79l13 -68 51 0z" />
	<polygon class="fil0" points="710,399 656,399 637,502 586,502 604,399 549,399 556,360 717,360 " />
	<path class="fil0" d="M709 439c0,-36 23,-84 102,-84 46,0 94,17 94,68 0,36 -22,84 -101,84 -46,0 -94,-17 -94,-68zm141 -14c0,-24 -19,-33 -39,-33 -36,0 -48,24 -48,45 0,24 19,33 39,33 36,0 48,-24 48,-45z" />
	<path class="fil0" d="M1092 406c0,25 -15,54 -64,54l-58 0 -7 42 -51 0 25 -143 92 0c26,0 64,7 64,47zm-55 2c0,-13 -9,-16 -21,-16l-34 0 -6 36 36 0c21,0 25,-11 25,-20z" />
	<polygon class="fil0" points="1093,502 1119,360 1170,360 1145,502 " />
	<path class="fil0" d="M1302 475l-67 0 -16 27 -58 0 91 -143 67 0 41 143 -52 0 -6 -27zm-7 -31l-6 -25c-3,-11 -4,-21 -5,-31l-1 0c-4,9 -10,20 -16,31l-15 25 42 0z" />
	<path class="fil0" d="M247 10c-3,1 -7,3 -9,4l-8 4 -8 4 -4 2 -4 2c-10,5 -18,10 -27,15 -8,5 -15,10 -22,15 -6,5 -12,10 -18,15 -3,3 -6,5 -8,8 -2,3 -5,5 -7,8 -4,5 -6,10 -7,15 -2,10 -2,20 3,30 3,5 6,10 11,15 2,3 5,5 8,8 3,3 6,5 9,8 6,5 14,10 21,15l22 15c15,10 28,20 36,30 9,10 13,20 13,30 0,10 -5,20 -15,30 -3,3 -5,5 -9,8l-5 4c-2,1 -4,3 -5,4l-5 4 -6 4 -12 8c-16,10 -33,20 -45,30 -13,10 -20,20 -22,30 -3,20 4,40 22,60 9,10 21,20 37,30 4,3 8,5 13,8l7 4c2,1 5,3 8,4l16 8 9 4 5 2 5 2 -244 0 5 -2 5 -2 9 -4 16 -8c3,-1 5,-3 7,-4l7 -4c4,-3 9,-5 13,-8 16,-10 28,-20 37,-30 18,-20 25,-40 22,-60 -2,-10 -10,-20 -22,-30 -12,-10 -29,-20 -45,-30l-12 -8 -6 -4 -5 -4c-2,-1 -4,-3 -5,-4l-5 -4c-3,-3 -6,-5 -9,-8 -10,-10 -15,-20 -15,-30l0 -1c0,-10 4,-20 13,-30 9,-10 21,-20 36,-30l22 -15c7,-5 15,-10 21,-15 3,-3 6,-5 9,-8 3,-3 6,-5 8,-8 5,-5 8,-10 11,-15 5,-10 5,-20 3,-30 -1,-5 -4,-10 -7,-15 -2,-3 -4,-5 -7,-8 -2,-3 -5,-5 -8,-8 -6,-5 -12,-10 -18,-15 -6,-5 -14,-10 -22,-15 -8,-5 -17,-10 -27,-15l-4 -2 -4 -2 -8 -4 -8 -4c-3,-1 -6,-3 -9,-4l246 0z" />
</svg>
